<svg width="80" height="84" viewBox="0 0 80 84" fill="none" xmlns="http://www.w3.org/2000/svg">
<path d="M65.6571 36.7573H14.3908C12.5914 36.7573 11.1277 35.2942 11.1277 33.4954V23.7229C11.1277 21.9242 12.5914 20.4604 14.3908 20.4604H65.6564C67.4552 20.4604 68.9183 21.9242 68.9183 23.7229V33.4961C68.9189 35.2942 67.4558 36.7573 65.6571 36.7573ZM14.3908 22.9604C13.9771 22.9604 13.6277 23.3098 13.6277 23.7229V33.4961C13.6277 33.9161 13.9702 34.2579 14.3908 34.2579H65.6564C66.0764 34.2579 66.4183 33.9161 66.4183 33.4961V23.7229C66.4183 23.3092 66.0689 22.9604 65.6564 22.9604H14.3908Z" fill="white"/>
<path d="M58.5075 70.2361H21.5375C18.0737 70.2361 15.2556 67.4186 15.2556 63.9542V35.5073C15.2556 34.8173 15.8156 34.2573 16.5056 34.2573C17.1956 34.2573 17.7556 34.8173 17.7556 35.5073V63.9542C17.7556 66.0398 19.4525 67.7361 21.5375 67.7361H58.5075C60.5919 67.7361 62.2881 66.0398 62.2881 63.9542V35.5073C62.2881 34.8173 62.8481 34.2573 63.5381 34.2573C64.2281 34.2573 64.7881 34.8173 64.7881 35.5073V63.9542C64.7881 67.4186 61.9706 70.2361 58.5075 70.2361Z" fill="white"/>
<path d="M40.0232 70.2361C39.3332 70.2361 38.7732 69.6767 38.7732 68.9861V35.5073C38.7732 34.8173 39.3332 34.2573 40.0232 34.2573C40.7132 34.2573 41.2732 34.8173 41.2732 35.5073V68.9854C41.2732 69.6767 40.7138 70.2361 40.0232 70.2361Z" fill="white"/>
<path d="M24.4218 22.956C20.5093 20.836 19.0493 15.9285 21.1674 12.0154C23.2843 8.10414 28.1911 6.64352 32.1055 8.75977C38.0686 11.9898 41.2886 21.001 41.4224 21.3829L39.0643 22.2123C39.0343 22.1273 36.0261 13.7266 30.9161 10.9585C28.213 9.49727 24.8268 10.506 23.3661 13.2054C21.9043 15.9073 22.9118 19.2948 25.6136 20.7579L24.4218 22.956Z" fill="white"/>
<path d="M55.6218 22.956L54.4318 20.7572C55.7411 20.0478 56.6955 18.8722 57.1205 17.4466C57.5449 16.0203 57.388 14.5141 56.6786 13.206C55.9711 11.8966 54.7961 10.9428 53.3705 10.5185C51.9443 10.0941 50.4393 10.2503 49.1305 10.9585C44.0205 13.726 41.0124 22.1266 40.9824 22.2116L38.6243 21.3822C38.758 21.0003 41.9774 11.9891 47.9405 8.7597C49.8355 7.73345 52.0186 7.5072 54.0836 8.1222C56.1505 8.73658 57.8524 10.1197 58.878 12.0153C59.9049 13.9103 60.1318 16.0922 59.5168 18.1591C58.9011 20.2253 57.518 21.9285 55.6218 22.956Z" fill="white"/>
<path d="M63.5381 53.4971H16.5056C15.8156 53.4971 15.2556 52.9371 15.2556 52.2471C15.2556 51.5571 15.8156 50.9971 16.5056 50.9971H63.5381C64.2281 50.9971 64.7881 51.5571 64.7881 52.2471C64.7881 52.9371 64.2287 53.4971 63.5381 53.4971Z" fill="white"/>
</svg>
